<svg xmlns="http://www.w3.org/2000/svg" width="84" height="79" fill="none"><path fill="#DF444C" d="M41.191 1.111a1 1 0 0 1 1.618 0l5.12 7.036a1 1 0 0 0 1.332.264l7.619-4.673a1 1 0 0 1 1.498.634l1.847 8.25a1 1 0 0 0 1.15.766l8.884-1.565a1 1 0 0 1 1.154 1.18l-1.63 8.179a1 1 0 0 0 .787 1.176l8.736 1.73a1 1 0 0 1 .627 1.55l-4.8 6.924a1 1 0 0 0 .28 1.41l7.28 4.687a1 1 0 0 1 0 1.682l-7.28 4.687a1 1 0 0 0-.28 1.41l4.8 6.924a1 1 0 0 1-.627 1.55l-8.736 1.73a1 1 0 0 0-.786 1.176l1.629 8.179a1 1 0 0 1-1.154 1.18l-8.885-1.565a1 1 0 0 0-1.149.766l-1.847 8.25a1 1 0 0 1-1.498.633l-7.62-4.672a1 1 0 0 0-1.33.264l-5.121 7.036a1 1 0 0 1-1.618 0l-5.12-7.036a1 1 0 0 0-1.332-.264L27.12 75.26a1 1 0 0 1-1.498-.633l-1.847-8.25a1 1 0 0 0-1.15-.766l-8.884 1.565a1 1 0 0 1-1.154-1.18l1.63-8.179a1 1 0 0 0-.787-1.176l-8.736-1.73a1 1 0 0 1-.627-1.55l4.8-6.924a1 1 0 0 0-.28-1.41l-7.28-4.687a1 1 0 0 1 0-1.682l7.28-4.687a1 1 0 0 0 .28-1.41l-4.8-6.924a1 1 0 0 1 .627-1.55l8.736-1.73a1 1 0 0 0 .786-1.176l-1.629-8.179a1 1 0 0 1 1.154-1.18l8.884 1.565a1 1 0 0 0 1.15-.766l1.847-8.25a1 1 0 0 1 1.498-.634l7.62 4.673a1 1 0 0 0 1.33-.264l5.121-7.036Z"/></svg>